<svg id="Layer_1" data-name="Layer 1" xmlns="http://www.w3.org/2000/svg" viewBox="0 0 3840 2160"><defs><style>.cls-1{fill:#e5e5e5;}.cls-1,.cls-2,.cls-3{stroke:#e5e5e5;stroke-miterlimit:10;stroke-width:12px;}.cls-3{fill:#418cc0;}</style></defs><rect class="cls-1" x="-81.43" y="-184" width="4088" height="2344"/><polygon class="cls-2" points="3431.22 2000.89 3247.5 2000.89 3155.63 2160 3339.36 2160 3523.09 2160 3431.22 2000.89"/><polygon class="cls-2" points="2880.04 2000.89 2696.32 2000.89 2604.45 2160 2788.18 2160 2971.91 2160 2880.04 2000.89"/><polygon class="cls-3" points="3614.95 2000.89 3523.09 1841.78 3431.22 2000.89 3523.09 2160 3706.81 2160 3614.95 2000.89"/><polygon class="cls-3" points="3706.81 1841.78 3614.95 2000.89 3706.81 2160 3798.68 2000.89 3890.54 1841.78 3706.81 1841.78"/><polygon class="cls-3" points="3155.63 1841.78 3063.77 2000.89 3155.63 2160 3247.5 2000.89 3339.36 1841.78 3155.63 1841.78"/><polygon class="cls-3" points="3063.77 2000.89 2971.91 1841.78 2880.04 2000.89 2971.91 2160 3155.63 2160 3063.77 2000.89"/><polygon class="cls-1" points="3431.22 1682.66 3339.36 1841.78 3247.5 2000.89 3431.22 2000.89 3523.09 1841.78 3431.22 1682.66"/><polygon class="cls-1" points="3798.68 1682.66 3614.95 1682.66 3706.81 1841.78 3890.54 1841.78 3982.4 1682.66 3798.68 1682.66"/><polygon class="cls-2" points="3614.95 1682.66 3431.22 1682.66 3523.09 1841.78 3614.95 2000.89 3706.81 1841.78 3614.95 1682.66"/><polygon class="cls-1" points="2880.04 1682.66 2788.18 1841.78 2696.32 2000.89 2880.04 2000.89 2971.91 1841.78 2880.04 1682.66"/><polygon class="cls-1" points="3247.5 1682.66 3063.77 1682.66 3155.63 1841.78 3339.36 1841.78 3431.22 1682.66 3247.5 1682.66"/><polygon class="cls-2" points="3063.77 1682.66 2880.04 1682.66 2971.91 1841.78 3063.77 2000.89 3155.63 1841.78 3063.77 1682.66"/><polygon class="cls-2" points="3706.81 1523.55 3523.09 1523.55 3431.22 1682.66 3614.95 1682.66 3798.68 1682.66 3706.81 1523.55"/><polygon class="cls-2" points="3155.63 1523.55 2971.91 1523.55 2880.04 1682.66 3063.77 1682.66 3247.5 1682.66 3155.63 1523.55"/><polygon class="cls-3" points="3890.54 1523.55 3798.68 1364.44 3706.81 1523.55 3798.68 1682.66 3982.4 1682.66 3890.54 1523.55"/><polygon class="cls-3" points="3431.22 1364.44 3339.36 1523.55 3431.22 1682.66 3523.09 1523.55 3614.95 1364.44 3431.22 1364.44"/><polygon class="cls-3" points="3339.36 1523.55 3247.5 1364.44 3155.63 1523.55 3247.5 1682.66 3431.22 1682.66 3339.36 1523.55"/><polygon class="cls-1" points="3706.81 1205.33 3614.95 1364.44 3523.09 1523.55 3706.81 1523.55 3798.68 1364.44 3706.81 1205.33"/><polygon class="cls-2" points="3890.54 1205.33 3706.81 1205.33 3798.68 1364.44 3890.54 1523.55 3982.4 1364.44 3890.54 1205.33"/><polygon class="cls-1" points="3155.63 1205.33 3063.77 1364.44 2971.91 1523.55 3155.63 1523.55 3247.5 1364.44 3155.63 1205.33"/><polygon class="cls-1" points="3523.09 1205.33 3339.36 1205.33 3431.22 1364.44 3614.95 1364.44 3706.81 1205.33 3523.09 1205.33"/><polygon class="cls-2" points="3339.36 1205.33 3155.63 1205.33 3247.5 1364.44 3339.36 1523.55 3431.22 1364.44 3339.36 1205.33"/><polygon class="cls-2" points="3431.22 1046.21 3247.5 1046.21 3155.63 1205.33 3339.36 1205.33 3523.09 1205.33 3431.22 1046.21"/><polygon class="cls-1" points="3890.54 887.1 3798.68 1046.21 3982.4 1046.21 3890.54 887.1"/><polygon class="cls-2" points="3982.4 1046.21 3798.68 1046.21 3706.81 1205.33 3890.54 1205.33 4074.27 1205.33 3982.4 1046.21"/><polygon class="cls-3" points="3706.81 887.1 3614.95 1046.21 3706.81 1205.33 3798.68 1046.21 3890.54 887.1 3706.81 887.1"/><polygon class="cls-3" points="3614.95 1046.21 3523.09 887.1 3431.22 1046.21 3523.09 1205.33 3706.81 1205.33 3614.95 1046.21"/><polygon class="cls-1" points="3431.22 727.99 3339.36 887.1 3247.5 1046.21 3431.22 1046.21 3523.09 887.1 3431.22 727.99"/><polygon class="cls-1" points="3798.68 727.99 3614.95 727.99 3706.81 887.1 3890.54 887.1 3982.4 727.99 3798.68 727.99"/><polygon class="cls-2" points="3614.95 727.99 3431.22 727.99 3523.09 887.1 3614.95 1046.21 3706.81 887.1 3614.95 727.99"/><polygon class="cls-2" points="3706.81 568.88 3523.09 568.88 3431.22 727.99 3614.95 727.99 3798.68 727.99 3706.81 568.88"/><polygon class="cls-3" points="3890.54 568.88 3798.68 409.77 3706.81 568.88 3798.68 727.99 3982.4 727.99 3890.54 568.88"/><polygon class="cls-1" points="3706.81 250.66 3614.95 409.77 3523.09 568.88 3706.81 568.88 3798.68 409.77 3706.81 250.66"/><polygon class="cls-2" points="3890.54 250.66 3706.81 250.66 3798.68 409.77 3890.54 568.88 3982.4 409.77 3890.54 250.66"/><polygon class="cls-2" points="3798.68 91.54 3706.81 250.66 3890.54 250.66 3982.4 91.54 3798.68 91.54"/><polygon class="cls-1" points="3890.54 -67.57 3798.68 91.54 3982.4 91.54 3890.54 -67.57"/></svg>