<?xml version="1.0" encoding="utf-8"?>
<!-- Generator: Adobe Illustrator 24.2.1, SVG Export Plug-In . SVG Version: 6.00 Build 0)  -->
<svg version="1.1" id="Layer_1" xmlns="http://www.w3.org/2000/svg" xmlns:xlink="http://www.w3.org/1999/xlink" x="0px" y="0px"
	 viewBox="0 0 120 30" style="enable-background:new 0 0 120 30;" xml:space="preserve">
<style type="text/css">
	.st0{fill:#FFFFFF;}
</style>
<g>
	<path class="st0" d="M2,20h5.78v0.71H1.25V9.29h6.33V10H2v4.74h4.89v0.73H2V20z"/>
	<path class="st0" d="M11.99,20h5.02v0.71h-5.77V9.29h0.75V20z"/>
	<path class="st0" d="M19,17.86h0.75c0.17,1.19,1.28,2.34,2.93,2.34c2.1,0,3.08-1.41,3.08-2.54c0-1.36-1.16-2.04-2.45-2.35
		l-1.59-0.36c-2.32-0.53-2.64-1.86-2.64-2.77c0-1.81,1.72-3.08,3.53-3.08c1.89,0,3.36,1.11,3.48,2.92h-0.75
		c-0.1-1.34-1.26-2.2-2.73-2.2c-1.43,0-2.78,0.99-2.78,2.37c0,0.66,0.22,1.62,2.06,2.07l1.59,0.38c1.69,0.41,3.03,1.29,3.03,2.98
		c0,1.49-1.24,3.3-3.83,3.3C20.56,20.91,19.15,19.42,19,17.86z"/>
	<path class="st0" d="M36.65,9.29V10h-3.78v10.71h-0.75V10h-3.76V9.29H36.65z"/>
	<path class="st0" d="M40.34,20h5.78v0.71h-6.53V9.29h6.33V10h-5.59v4.74h4.89v0.73h-4.89V20z"/>
	<path class="st0" d="M54.04,15.02c0-3.25,2.49-5.93,5.65-5.93c1.51,0,2.87,0.6,3.86,1.56l-0.51,0.5C62.18,10.33,61,9.8,59.69,9.8
		c-2.75,0-4.91,2.39-4.91,5.22c0,2.82,2.15,5.17,4.91,5.17c1.31,0,2.47-0.51,3.33-1.33l0.51,0.5c-0.98,0.96-2.34,1.54-3.84,1.54
		C56.53,20.91,54.04,18.26,54.04,15.02z"/>
	<path class="st0" d="M73.89,20.71l-1.18-3.12h-5.57l-1.19,3.12h-0.8l4.38-11.42h0.8l4.34,11.42H73.89z M67.4,16.93h5.05l-2.52-6.65
		L67.4,16.93z"/>
	<path class="st0" d="M81.9,9.29c2.27,0,3.15,1.69,3.15,3.41s-0.88,3.4-3.22,3.4h-3.65v4.61h-0.75V9.29H81.9z M81.8,15.39
		c1.82,0,2.5-1.33,2.5-2.68c0-1.36-0.66-2.7-2.42-2.7h-3.7v5.39H81.8z"/>
	<path class="st0" d="M88.29,20.71V9.29h0.75v11.42H88.29z"/>
	<path class="st0" d="M100.29,9.29V10h-3.78v10.71h-0.75V10H92V9.29H100.29z"/>
	<path class="st0" d="M109.44,20.71l-1.18-3.12h-5.57l-1.19,3.12h-0.8l4.38-11.42h0.8l4.34,11.42H109.44z M102.94,16.93H108
		l-2.52-6.65L102.94,16.93z"/>
	<path class="st0" d="M113.73,20h5.02v0.71h-5.77V9.29h0.75V20z"/>
</g>
</svg>
