<svg id="Layer_1" data-name="Layer 1" xmlns="http://www.w3.org/2000/svg" viewBox="0 0 1300 2000"><defs><style>.cls-1,.cls-2,.cls-3{stroke:#e5e5e5;stroke-miterlimit:10;stroke-width:12px;}.cls-2{fill:#418cc0;}.cls-3{fill:#e5e5e5;}</style></defs><polygon class="cls-1" points="1045.55 1850.14 879.44 1850.14 796.38 1994 962.49 1994 1128.61 1994 1045.55 1850.14"/><polygon class="cls-1" points="547.21 1850.14 381.09 1850.14 298.03 1994 464.15 1994 630.26 1994 547.21 1850.14"/><polygon class="cls-2" points="1211.66 1850.14 1128.61 1706.28 1045.55 1850.14 1128.61 1994 1294.72 1994 1211.66 1850.14"/><polygon class="cls-2" points="1294.72 1706.28 1211.66 1850.14 1294.72 1994 1377.78 1850.14 1460.84 1706.28 1294.72 1706.28"/><polygon class="cls-2" points="796.38 1706.28 713.32 1850.14 796.38 1994 879.44 1850.14 962.49 1706.28 796.38 1706.28"/><polygon class="cls-2" points="713.32 1850.14 630.26 1706.28 547.21 1850.14 630.26 1994 796.38 1994 713.32 1850.14"/><polygon class="cls-3" points="1045.55 1562.42 962.49 1706.28 879.44 1850.14 1045.55 1850.14 1128.61 1706.28 1045.55 1562.42"/><polygon class="cls-3" points="1377.78 1562.42 1211.66 1562.42 1294.72 1706.28 1460.84 1706.28 1543.89 1562.42 1377.78 1562.42"/><polygon class="cls-1" points="1211.66 1562.42 1045.55 1562.42 1128.61 1706.28 1211.66 1850.14 1294.72 1706.28 1211.66 1562.42"/><polygon class="cls-3" points="547.21 1562.42 464.15 1706.28 381.09 1850.14 547.21 1850.14 630.26 1706.28 547.21 1562.42"/><polygon class="cls-3" points="879.44 1562.42 713.32 1562.42 796.38 1706.28 962.49 1706.28 1045.55 1562.42 879.44 1562.42"/><polygon class="cls-1" points="713.32 1562.42 547.21 1562.42 630.26 1706.28 713.32 1850.14 796.38 1706.28 713.32 1562.42"/><polygon class="cls-1" points="1294.72 1418.56 1128.61 1418.56 1045.55 1562.42 1211.66 1562.42 1377.78 1562.42 1294.72 1418.56"/><polygon class="cls-1" points="796.38 1418.56 630.26 1418.56 547.21 1562.42 713.32 1562.42 879.44 1562.42 796.38 1418.56"/><polygon class="cls-2" points="1460.84 1418.56 1377.78 1274.7 1294.72 1418.56 1377.78 1562.42 1543.89 1562.42 1460.84 1418.56"/><polygon class="cls-2" points="1045.55 1274.7 962.49 1418.56 1045.55 1562.42 1128.61 1418.56 1211.66 1274.7 1045.55 1274.7"/><polygon class="cls-2" points="962.49 1418.56 879.44 1274.7 796.38 1418.56 879.44 1562.42 1045.55 1562.42 962.49 1418.56"/><polygon class="cls-3" points="1294.72 1130.84 1211.66 1274.7 1128.61 1418.56 1294.72 1418.56 1377.78 1274.7 1294.72 1130.84"/><polygon class="cls-1" points="1460.84 1130.84 1294.72 1130.84 1377.78 1274.7 1460.84 1418.56 1543.89 1274.7 1460.84 1130.84"/><polygon class="cls-3" points="796.38 1130.84 713.32 1274.7 630.26 1418.56 796.38 1418.56 879.44 1274.7 796.38 1130.84"/><polygon class="cls-3" points="1128.61 1130.84 962.49 1130.84 1045.55 1274.7 1211.66 1274.7 1294.72 1130.84 1128.61 1130.84"/><polygon class="cls-1" points="962.49 1130.84 796.38 1130.84 879.44 1274.7 962.49 1418.56 1045.55 1274.7 962.49 1130.84"/><polygon class="cls-1" points="1045.55 986.98 879.44 986.98 796.38 1130.84 962.49 1130.84 1128.61 1130.84 1045.55 986.98"/><polygon class="cls-1" points="1543.89 986.98 1377.78 986.98 1294.72 1130.84 1460.84 1130.84 1626.95 1130.84 1543.89 986.98"/><polygon class="cls-2" points="1294.72 843.12 1211.66 986.98 1294.72 1130.84 1377.78 986.98 1460.84 843.12 1294.72 843.12"/><polygon class="cls-2" points="1211.66 986.98 1128.61 843.12 1045.55 986.98 1128.61 1130.84 1294.72 1130.84 1211.66 986.98"/><polygon class="cls-3" points="1045.55 699.26 962.49 843.12 879.44 986.98 1045.55 986.98 1128.61 843.12 1045.55 699.26"/><polygon class="cls-3" points="1377.78 699.26 1211.66 699.26 1294.72 843.12 1460.84 843.12 1543.89 699.26 1377.78 699.26"/><polygon class="cls-1" points="1211.66 699.26 1045.55 699.26 1128.61 843.12 1211.66 986.98 1294.72 843.12 1211.66 699.26"/><polygon class="cls-1" points="1294.72 555.4 1128.61 555.4 1045.55 699.26 1211.66 699.26 1377.78 699.26 1294.72 555.4"/><polygon class="cls-2" points="1460.84 555.4 1377.78 411.54 1294.72 555.4 1377.78 699.26 1543.89 699.26 1460.84 555.4"/><polygon class="cls-3" points="1294.72 267.69 1211.66 411.54 1128.61 555.4 1294.72 555.4 1377.78 411.54 1294.72 267.69"/><polygon class="cls-1" points="1460.84 267.69 1294.72 267.69 1377.78 411.54 1460.84 555.4 1543.89 411.54 1460.84 267.69"/><polygon class="cls-1" points="1377.78 123.83 1294.72 267.69 1460.84 267.69 1543.89 123.83 1377.78 123.83"/></svg>